<?xml version="1.0" standalone="no"?>
<!DOCTYPE svg PUBLIC "-//W3C//DTD SVG 20010904//EN"
 "http://www.w3.org/TR/2001/REC-SVG-20010904/DTD/svg10.dtd">
<svg version="1.0" xmlns="http://www.w3.org/2000/svg"
 width="1645.000000pt" height="1093.000000pt" viewBox="0 0 1645.000000 1093.000000"
 preserveAspectRatio="xMidYMid meet">
<metadata>
Created by potrace 1.16, written by Peter Selinger 2001-2019
</metadata>
<g transform="translate(0.000000,1093.000000) scale(0.100000,-0.100000)"
fill="#000000" stroke="none">
<path d="M3831 8229 c-16 -36 -21 -265 -8 -372 7 -53 6 -68 -5 -71 -7 -2 -35
-9 -63 -15 -81 -19 -170 -68 -214 -117 -50 -57 -71 -118 -71 -209 0 -221 146
-506 439 -861 132 -159 419 -449 551 -556 120 -97 296 -218 318 -218 9 0 13 2
11 4 -2 1 -35 29 -74 62 -200 167 -407 380 -590 610 -151 188 -143 180 -138
152 4 -19 0 -24 -19 -24 -31 0 -66 35 -131 134 -70 105 -143 254 -163 334 -20
79 -15 169 12 205 37 50 88 68 204 71 l105 4 -3 114 c-3 91 -6 114 -18 114 -8
0 -14 5 -14 10 0 6 7 10 15 10 18 0 20 16 2 27 -11 7 -25 64 -44 178 -2 17 -8
39 -13 50 -5 11 -14 52 -21 90 -6 39 -16 76 -22 83 -13 17 -29 111 -30 175 0
26 -1 47 -1 47 -1 0 -7 -14 -15 -31z"/>
<path d="M8530 7770 c-244 -50 -430 -399 -559 -1050 -21 -105 -24 -126 -61
-385 -11 -77 -22 -147 -25 -155 -6 -23 -63 -462 -75 -585 -6 -60 -13 -121 -16
-134 -4 -17 -34 60 -98 250 -93 274 -174 497 -261 724 -25 66 -55 143 -65 170
-10 28 -44 115 -75 195 -31 80 -102 262 -156 404 -55 143 -105 266 -111 274
-16 19 -75 42 -109 42 -47 0 -69 -31 -69 -97 0 -202 -172 -804 -347 -1217
-114 -270 -283 -571 -414 -739 -107 -138 -265 -277 -384 -340 -111 -59 -160
-70 -312 -72 -155 -1 -173 -7 -173 -57 0 -48 48 -62 205 -63 148 0 203 13 342
84 280 140 575 489 802 949 168 338 303 720 387 1092 24 111 30 128 38 119 4
-5 119 -314 246 -664 56 -154 115 -314 130 -355 16 -41 54 -145 85 -230 106
-290 278 -745 301 -797 20 -45 27 -53 50 -53 35 0 112 37 123 58 5 10 12 51
15 92 16 176 72 595 131 980 14 91 32 210 40 265 39 262 95 515 155 695 37
111 52 148 103 250 53 106 158 217 227 240 42 14 45 17 48 55 5 60 -25 75
-118 55z"/>
<path d="M6110 7222 c0 -15 -53 -72 -66 -72 -7 0 -18 -9 -24 -20 -6 -11 -15
-18 -20 -15 -8 5 -40 -48 -40 -67 0 -21 -114 -269 -170 -368 -72 -129 -188
-296 -280 -405 -94 -112 -102 -126 -54 -88 70 55 258 257 338 363 150 200 284
464 311 615 4 22 12 46 18 53 6 8 6 12 -2 12 -6 0 -11 -4 -11 -8z"/>
<path d="M5419 7075 c-1 -11 -1 -29 0 -40 1 -18 1 -19 -9 -2 -6 9 -15 17 -19
17 -5 0 -8 -8 -7 -17 2 -28 -27 -21 -35 7 -3 14 -7 -66 -8 -177 -2 -307 -20
-438 -83 -613 -41 -113 -88 -207 -155 -308 -30 -46 -53 -85 -50 -88 2 -2 35
30 72 73 72 82 155 203 198 288 41 82 96 258 112 360 24 147 20 459 -6 505 -7
12 -9 11 -10 -5z"/>
<path d="M8685 6749 c-2 -8 -16 -51 -30 -96 -23 -75 -24 -85 -12 -116 18 -41
57 -59 118 -55 42 3 45 5 72 57 20 41 27 69 27 112 0 82 -19 102 -104 107 -49
3 -67 1 -71 -9z"/>
<path d="M11630 6589 c-163 -24 -275 -101 -344 -236 -31 -62 -70 -177 -78
-229 -2 -12 -38 -54 -81 -93 -143 -129 -271 -200 -404 -223 -88 -15 -127 -6
-204 44 l-64 42 42 7 c105 19 212 100 232 177 21 76 -6 146 -75 198 -35 27
-44 29 -124 29 -78 0 -91 -3 -129 -28 -23 -16 -55 -49 -69 -75 -71 -123 -317
-291 -517 -353 -94 -29 -191 -31 -227 -4 -38 28 -61 80 -55 124 11 84 108 221
156 221 17 0 19 -5 14 -34 -7 -46 22 -76 77 -76 83 0 141 100 103 178 -28 57
-87 81 -198 82 -114 0 -172 -24 -236 -99 -24 -28 -50 -51 -57 -51 -7 0 -31
-17 -55 -38 -158 -143 -431 -301 -520 -302 -48 0 -84 25 -90 63 -8 49 9 179
34 263 38 127 12 174 -93 174 -50 0 -60 -3 -73 -24 -40 -61 -60 -222 -45 -354
19 -159 43 -202 135 -250 45 -23 62 -26 165 -26 109 -1 119 1 193 33 89 38
186 100 270 173 61 53 76 53 77 3 1 -42 74 -137 131 -173 113 -69 266 -83 425
-40 124 35 195 71 323 166 15 11 22 6 50 -37 38 -60 102 -101 202 -132 101
-31 344 -34 429 -5 104 35 173 79 255 161 105 105 150 189 151 286 1 53 8 81
33 135 57 122 131 176 268 195 246 34 808 -114 1121 -296 206 -119 279 -224
227 -325 -56 -108 -340 -236 -750 -339 -606 -151 -1375 -278 -3295 -541 -2119
-290 -2818 -407 -3555 -591 -834 -209 -1357 -428 -1953 -815 -125 -82 -146
-108 -121 -152 28 -49 68 -37 235 70 271 173 463 278 704 385 636 282 1485
496 2770 697 427 67 811 122 1815 260 501 69 1081 150 1290 180 1860 269 2634
455 2896 695 280 256 27 562 -644 780 -310 101 -596 146 -767 120z"/>
<path d="M4853 5553 c-23 -27 -62 -70 -87 -98 -55 -59 -101 -123 -94 -130 10
-10 106 47 151 91 39 37 46 48 36 60 -9 11 -9 14 0 14 7 0 11 10 10 23 -2 12
5 37 14 55 10 17 16 32 14 32 -2 0 -22 -21 -44 -47z"/>
<path d="M4687 5510 c-43 -38 -124 -99 -180 -136 -56 -36 -127 -84 -157 -105
-75 -52 -251 -163 -272 -172 -22 -8 -24 -27 -2 -27 26 0 165 61 254 113 117
67 221 147 308 236 60 60 143 163 130 160 -2 0 -38 -31 -81 -69z"/>
<path d="M3528 5523 c-1 -5 -32 -21 -68 -38 -146 -68 -287 -181 -329 -263 -50
-97 -7 -188 114 -244 45 -21 65 -23 185 -23 155 1 266 24 255 54 -4 9 -8 21
-9 26 -18 73 -22 75 -165 95 -85 12 -140 39 -164 80 -44 73 6 164 149 271 30
23 54 43 54 45 0 7 -18 4 -22 -3z"/>
<path d="M7550 3610 l0 -30 301 -2 302 -3 3 -29 c1 -15 5 -30 7 -32 9 -9 71
17 84 36 12 17 25 20 88 20 41 0 77 -5 80 -10 4 -6 14 -10 23 -8 10 1 27 -4
40 -11 21 -11 24 -10 29 8 6 25 16 27 33 6 13 -16 45 -21 36 -6 -3 5 1 14 9
21 8 7 15 25 15 41 l0 29 -525 0 -525 0 0 -30z"/>
<path d="M8528 3434 c-4 -3 -89 -7 -190 -7 l-183 -2 -3 -77 -3 -78 -299 0
-300 0 0 -30 0 -30 525 0 525 0 0 28 c0 16 -3 32 -7 36 -4 4 -7 35 -5 69 1 34
-1 67 -5 73 -10 14 -47 26 -55 18z"/>
<path d="M7080 2180 c0 -162 -7 -185 -51 -176 -25 5 -29 3 -29 -18 0 -13 7
-27 16 -30 31 -12 82 -6 105 13 23 19 24 23 24 183 l0 163 -32 3 -33 3 0 -141z"/>
<path d="M7364 2307 c-2 -7 -3 -89 -2 -182 l3 -170 105 0 c98 0 105 1 105 20
0 18 -8 20 -67 23 l-68 3 0 54 0 55 55 0 c52 0 55 1 55 25 0 24 -3 25 -55 25
l-55 0 0 50 0 49 63 3 c59 3 62 4 65 31 l3 27 -101 0 c-73 0 -102 -4 -106 -13z"/>
<path d="M7860 2300 c-11 -20 -120 -333 -120 -344 0 -3 15 -6 33 -6 30 0 36 4
50 40 l15 40 67 0 67 0 15 -40 c14 -36 20 -40 50 -40 25 0 33 4 33 18 0 9 -22
80 -49 157 -74 212 -64 195 -110 195 -30 0 -43 -5 -51 -20z"/>
<path d="M8267 2313 c-4 -3 -7 -87 -7 -185 l0 -179 33 3 32 3 -1 138 c-1 75 0
137 2 137 2 0 36 -63 74 -141 l71 -140 42 3 42 3 3 178 c2 158 1 178 -14 184
-9 3 -24 2 -33 -4 -13 -8 -17 -35 -21 -141 l-5 -131 -53 117 c-74 160 -75 162
-121 162 -21 0 -41 -3 -44 -7z"/>
<path d="M8815 2305 c-42 -22 -55 -43 -55 -90 0 -53 13 -70 86 -108 64 -35 78
-61 48 -92 -18 -17 -63 -17 -121 1 -20 5 -23 3 -23 -20 0 -32 30 -46 96 -46
67 0 112 23 130 66 28 67 5 108 -89 155 -54 26 -68 49 -46 75 12 15 28 15 104
2 14 -2 21 3 23 20 6 43 -94 67 -153 37z"/>
</g>
</svg>
